<?xml version="1.0" encoding="UTF-8"?>
<svg xmlns="http://www.w3.org/2000/svg" viewBox="0 0 593 506" width="593" height="506">
<path d="M0.13 0.13C197.71 0.13 395.29 0.13 592.88 0.13C592.88 168.71 592.88 337.29 592.88 505.88C395.29 505.88 197.71 505.88 0.13 505.88C0.13 337.29 0.13 168.71 0.13 0.13ZM320.25 86.36C335.91 79.83 342.94 52.48 338.89 37.81C332.59 15.03 309.4 0.02 285.78 6.08C261.41 12.33 247.91 40.29 256.15 63.63C258.41 70.04 262.12 75.86 267.01 80.72C268.81 82.51 271.93 84.43 273.03 86.72C273.26 87.19 270.96 109.12 270.57 110.25C266 112.73 256.56 111.44 251.25 112.04C239.96 113.32 228.73 115.63 217.77 118.07C173.87 127.84 124.89 148.79 93.73 183.48C83.29 195.11 71.07 208.4 66.81 223.75C51.81 227.28 38.29 229.15 27.23 241.47C10.38 260.23 6.83 285.21 6.97 309.75C7.2 349.98 16.35 386.88 61.27 394.25C64.54 399.69 65.51 406.8 68.08 412.68C74.41 427.12 86.05 441.95 99.42 450.8C162.22 492.38 252.05 500.16 326.77 495.2C350.35 493.64 375.24 493.47 397.9 487.23C405.16 485.23 412.89 484.65 420.22 482.92C448.07 476.37 478.92 466.68 501.63 447.85C511.69 439.51 521.66 429.29 526.84 417.13C529.17 411.66 531.88 399.13 534.43 395.18C534.87 394.49 547.4 391.64 549.56 390.76C558.57 387.1 568.17 380.25 573.56 371.81C577.85 365.08 582.49 357.15 583.99 349.24C592.25 305.87 591.42 222.57 527.75 224.55C523.97 220.25 521.42 212.68 518.71 207.52C515.06 200.55 509.44 194.32 504.55 188.21C482.54 160.69 447.76 142.73 416.11 130.18C395.28 121.93 373.29 117.24 351.23 113.08C345.26 111.95 326.18 112.68 322.37 109.75C321.66 101.95 320.96 94.16 320.25 86.36ZM290.79 19.1C304.54 16.32 306.71 38.74 292.75 40.11C279.93 41.37 278.33 21.62 290.79 19.1ZM417 145.75C405 142.08 393 138.42 381 134.75C381.67 135.42 382.33 136.1 383 136.77C381.9 136.77 380.81 136.77 379.71 136.77C387.72 139.76 395.74 142.74 403.75 145.72C400.87 147.13 391.01 142.14 387.64 141.12C374.96 137.28 360.98 134.36 347.75 133.13C313.72 129.96 279.78 129.06 245.77 133.15C235.34 134.41 225.01 136.79 214.77 139.03C209.73 140.13 203.83 143.09 198.73 142.75C203.32 140.92 207.91 139.08 212.5 137.25C210.52 137.24 209.02 137.99 208.75 135.52C198.28 138.59 187.82 141.67 177.35 144.75C235.3 122.2 302.04 114.9 363.34 128.84C377.12 131.97 390.55 135.03 403.8 139.98C407.88 141.51 413.94 142.62 417 145.75ZM383.15 158.75C377.43 157.75 371.72 156.75 366 155.75C367.24 156.8 368.48 157.85 369.72 158.9C371.22 158.9 372.72 158.9 374.22 158.9C372.48 159.69 370.74 160.47 369 161.25C375.33 160.92 381.67 160.58 388 160.25C379.61 166.74 355.08 161.67 344.75 160.93C313.43 158.67 285.25 156.89 253.75 160.02C238.9 161.49 217.82 167.61 203.76 160.25C221.01 153.35 241.8 150.7 260.23 148.83C300.3 144.76 344.8 145.64 383.15 158.75ZM423.25 148.03C434.73 149.14 464.61 170.01 474.4 177.82C520.27 214.42 526.27 270.89 525 326.25C524.35 354.92 522.26 385.04 508.69 410.45C498.09 430.29 477.98 442.18 458.46 451.24C417.12 470.43 367.84 475.99 322.25 477.84C270.96 479.93 217.38 476.66 168.66 462.13C144.24 454.85 118.73 444.81 100.47 425.77C76.5 400.78 72.58 367.25 69.92 334.25C66.92 297.14 69.09 256.7 83.24 222.43C97.51 187.87 134.88 161.07 168.75 148.33C178.23 163.54 210.68 171.89 227.25 170.96C256.4 169.32 284.75 164.9 314.25 166.13C356.45 167.9 389.01 180.37 423.25 148.03ZM230.5 155.75C223.38 157.53 216.26 159.31 209.13 161.09C215.85 161.09 222.56 161.09 229.28 161.09C226.47 160.31 223.66 159.53 220.85 158.75C224.07 157.75 227.28 156.75 230.5 155.75ZM182.29 234.66C166.79 236.83 152.44 241.62 140.35 252.09C87.41 297.94 125.34 379.98 193.75 374.02C228.56 370.99 254.29 340 254.71 305.75C255.19 267.44 223.35 228.93 182.29 234.66ZM403.29 234.69C393.08 235.76 383.84 237.99 374.91 243.18C310.58 280.52 344.55 382.98 419.25 373.97C429.63 372.72 440.84 369.73 449.63 363.89C510.25 323.61 471.93 227.49 403.29 234.69ZM60.75 237.31C60.87 239.38 60.36 243.98 57.96 243.75C58.28 242.42 58.6 241.08 58.93 239.75C53.3 241.42 47.68 243.08 42.05 244.75C47.55 240.26 54.09 238.99 60.75 237.31ZM553.08 245.75C547.44 244.39 541.8 243.03 536.16 241.66C538.44 241.66 540.72 241.66 543 241.66C540.32 240.86 537.64 240.05 534.97 239.25C534.97 240.86 534.97 242.47 534.97 244.08C534.39 241.93 533.82 239.78 533.25 237.63C540.54 239.07 547.44 240.42 553.08 245.75ZM56.75 254.63C55.22 273.09 53.68 291.54 52.15 309.99C52.15 301.48 52.15 292.96 52.15 284.45C45.85 285.8 39.55 287.14 33.25 288.49C32.92 290.49 32.58 292.5 32.25 294.5C32.74 286.75 33.24 279 33.73 271.25C40.74 269.25 47.75 267.25 54.76 265.25C55.42 261.71 56.09 258.17 56.75 254.63ZM164.84 255.17C184.04 250.08 191.41 279.35 172.65 283.81C154.12 288.23 146.42 260.06 164.84 255.17ZM387.31 255.15C406.5 250.59 413.35 278.49 395.07 283.76C376.24 289.19 368.4 259.64 387.31 255.15ZM565.25 258.08C571.59 266.1 573.52 277.89 575.04 287.74C575.52 290.82 577.29 296.55 575.75 299.17C572.48 292.99 573.04 280.13 570.67 272.61C569.18 267.89 565.13 262.69 565.25 258.08ZM28.75 258.7C27.58 269.88 26.42 281.06 25.25 292.25C25.75 282.88 26.25 273.52 26.75 264.15C24.08 275.44 21.42 286.72 18.75 298C17.19 295.74 18.94 291.48 19.14 288.75C19.86 279 22.72 266.54 28.75 258.7ZM537.75 260.5C538.25 262.13 538.75 263.75 539.25 265.38C546.25 267.22 553.25 269.05 560.25 270.89C560.75 277.43 561.25 283.98 561.75 290.53C557.06 287.11 546.59 284.5 541.81 284.99C541.81 293.36 541.81 301.72 541.81 310.08C540.46 293.55 539.1 277.03 537.75 260.5ZM566.25 264.35C566.92 274.79 567.58 285.23 568.25 295.67C567.58 285.23 566.92 274.79 566.25 264.35ZM561.43 291.8C561.43 297.49 561.43 303.18 561.43 308.87C561.43 303.18 561.43 297.49 561.43 291.8ZM106.75 308.5C105.85 310.95 107.77 326.43 110.04 326.75C108.94 320.67 107.85 314.58 106.75 308.5ZM225.25 338.08C225.75 337 226.25 335.93 226.75 334.86C227.58 335.57 228.42 336.28 229.25 336.99C230.61 335.91 231.97 334.83 233.33 333.75C219.41 357.31 191.54 369.34 165.64 357.12C158.86 353.91 141.11 341.6 141.75 333.2C142.75 334.56 143.75 335.91 144.75 337.26C146.92 335.55 149.08 333.84 151.25 332.13C162.07 343.16 176.14 350.98 192.28 348.67C198.52 347.77 205.53 342.72 211.36 342.75C207.21 337.64 209.52 327.47 217.72 329.09C223.52 330.23 222.93 334.61 225.25 338.08ZM444.25 340.87C446.09 338.98 447.15 337.83 449.25 340.15C450.96 338.51 452.67 336.88 454.38 335.25C437.83 361.62 403.9 371.13 377.94 351.32C371.76 346.6 365.55 340.02 362.58 332.75C363.47 333.33 364.36 333.92 365.25 334.5C367.42 333.43 369.58 332.36 371.75 331.29C381.95 343.26 397.33 350.53 413.25 348.66C417.72 348.14 429.16 342.81 432.25 343.62C422.42 329.22 446.13 322.85 444.25 340.87ZM254.3 376.1C251.84 376.73 250.43 378.96 249.87 381.23C247.69 390.17 258.43 396.99 265.41 400.79C287.7 412.93 312.42 413.03 334.55 400.31C339.64 397.39 349.19 391.79 350.06 385.25C350.9 378.91 346.27 374.25 339.78 376.04C335.7 377.17 332.14 381.63 328.34 383.58C320.98 387.38 313.03 390.05 304.73 390.84C293.18 391.94 281.1 388.83 270.87 383.82C265.62 381.24 260.73 374.43 254.3 376.1ZM195.25 445.1C195.09 443.13 187.34 441.86 185.14 441.2C175.07 438.2 165.09 433.98 155.84 428.95C145.58 423.38 135.45 416.93 127.21 408.55C124.63 405.92 116.29 394.86 114.03 394.25C134.2 420.66 162.94 437.8 195.25 445.1ZM501.75 396.09C497.7 400.93 495.28 407.99 491.56 413.33C484.49 423.48 474.46 431.36 463.94 437.67C456.47 442.16 448.14 445.95 439.9 448.7C437.06 449.65 429.91 450.77 428.5 453.25C445.68 452.82 480.62 429.75 491.06 415.84C494.45 411.31 502.34 401.78 501.75 396.09ZM95.25 396.93C94.38 402.26 106.61 416.98 110.64 421.12C126.16 437.11 146.25 446.49 167.17 453.07C174.2 455.28 183.46 459.4 190.86 458.75C186.33 456.5 180.41 456.1 175.53 454.72C166.74 452.23 157.85 449.34 149.44 445.75C131.98 438.3 116.23 427.48 104.39 412.39C100.65 407.61 98.81 401.61 95.25 396.93ZM480.25 396.77C464.08 417.21 441.45 430.41 417.21 438.98C410.59 441.32 385.28 446.32 382 448.75C387.4 450.33 397.65 445.85 403.13 444.32C424.55 438.36 444.17 429.84 462.11 416.38C465.95 413.5 480.62 400.87 480.25 396.77ZM427.5 453.25C416.5 455.92 405.5 458.58 394.5 461.25C405.5 458.58 416.5 455.92 427.5 453.25ZM347.5 453.75C339.6 454.25 331.7 454.75 323.8 455.25C325.47 456.8 345.34 455.37 347.5 453.75ZM322 455.89C306.17 455.89 290.33 455.89 274.5 455.89C280.84 459.23 302.34 457.07 310.25 456.95C313.44 456.91 319.32 457.36 322 455.89ZM219.68 463.75C214.29 462.92 208.89 462.08 203.5 461.25C208.89 462.08 214.29 462.92 219.68 463.75ZM388.5 462.25C381.83 463.25 375.17 464.25 368.5 465.25C375.17 464.25 381.83 463.25 388.5 462.25ZM367.5 465.25C361.33 465.92 355.17 466.58 349 467.25C355.17 466.58 361.33 465.92 367.5 465.25ZM334.5 468.25C329.67 468.58 324.83 468.92 320 469.25C324.83 468.92 329.67 468.58 334.5 468.25ZM307 469.32C300.83 469.32 294.67 469.32 288.5 469.32C294.67 469.32 300.83 469.32 307 469.32Z" fill="#eef1f5" fill-rule="evenodd" stroke="#eef1f5" stroke-width="0.25" stroke-linejoin="round"/>
<path d="M320.25 86.36C320.96 94.16 321.66 101.95 322.37 109.75C326.18 112.68 345.26 111.95 351.23 113.08C373.29 117.24 395.28 121.93 416.11 130.18C447.76 142.73 482.54 160.69 504.55 188.21C509.44 194.32 515.06 200.55 518.71 207.52C521.42 212.68 523.97 220.25 527.75 224.55C591.42 222.57 592.25 305.87 583.99 349.24C582.49 357.15 577.85 365.08 573.56 371.81C568.17 380.25 558.57 387.1 549.56 390.76C547.4 391.64 534.87 394.49 534.43 395.18C531.88 399.13 529.17 411.66 526.84 417.13C521.66 429.29 511.69 439.51 501.63 447.85C478.92 466.68 448.07 476.37 420.22 482.92C412.89 484.65 405.16 485.23 397.9 487.23C375.24 493.47 350.35 493.64 326.77 495.2C252.05 500.16 162.22 492.38 99.42 450.8C86.05 441.95 74.41 427.12 68.08 412.68C65.51 406.8 64.54 399.69 61.27 394.25C16.35 386.88 7.2 349.98 6.97 309.75C6.83 285.21 10.38 260.23 27.23 241.47C38.29 229.15 51.81 227.28 66.81 223.75C71.07 208.4 83.29 195.11 93.73 183.48C124.89 148.79 173.87 127.84 217.77 118.07C228.73 115.63 239.96 113.32 251.25 112.04C256.56 111.44 266 112.73 270.57 110.25C270.96 109.12 273.26 87.19 273.03 86.72C271.93 84.43 268.81 82.51 267.01 80.72C262.12 75.86 258.41 70.04 256.15 63.63C247.91 40.29 261.41 12.33 285.78 6.08C309.4 0.02 332.59 15.03 338.89 37.81C342.94 52.48 335.91 79.83 320.25 86.36ZM290.79 19.1C278.33 21.62 279.93 41.37 292.75 40.11C306.71 38.74 304.54 16.32 290.79 19.1ZM417 145.75C413.94 142.62 407.88 141.51 403.8 139.98C390.55 135.03 377.12 131.97 363.34 128.84C302.04 114.9 235.3 122.2 177.35 144.75C187.82 141.67 198.28 138.59 208.75 135.52C209.02 137.99 210.52 137.24 212.5 137.25C207.91 139.08 203.32 140.92 198.73 142.75C203.83 143.09 209.73 140.13 214.77 139.03C225.01 136.79 235.34 134.41 245.77 133.15C279.78 129.06 313.72 129.96 347.75 133.13C360.98 134.36 374.96 137.28 387.64 141.12C391.01 142.14 400.87 147.13 403.75 145.72C395.74 142.74 387.72 139.76 379.71 136.77C380.81 136.77 381.9 136.77 383 136.77C382.33 136.1 381.67 135.42 381 134.75C393 138.42 405 142.08 417 145.75ZM383.15 158.75C344.8 145.64 300.3 144.76 260.23 148.83C241.8 150.7 221.01 153.35 203.76 160.25C217.82 167.61 238.9 161.49 253.75 160.02C285.25 156.89 313.43 158.67 344.75 160.93C355.08 161.67 379.61 166.74 388 160.25C381.67 160.58 375.33 160.92 369 161.25C370.74 160.47 372.48 159.69 374.22 158.9C372.72 158.9 371.22 158.9 369.72 158.9C368.48 157.85 367.24 156.8 366 155.75C371.72 156.75 377.43 157.75 383.15 158.75ZM423.25 148.03C389.01 180.37 356.45 167.9 314.25 166.13C284.75 164.9 256.4 169.32 227.25 170.96C210.68 171.89 178.23 163.54 168.75 148.33C134.88 161.07 97.51 187.87 83.24 222.43C69.09 256.7 66.92 297.14 69.92 334.25C72.58 367.25 76.5 400.78 100.47 425.77C118.73 444.81 144.24 454.85 168.66 462.13C217.38 476.66 270.96 479.93 322.25 477.84C367.84 475.99 417.12 470.43 458.46 451.24C477.98 442.18 498.09 430.29 508.69 410.45C522.26 385.04 524.35 354.92 525 326.25C526.27 270.89 520.27 214.42 474.4 177.82C464.61 170.01 434.73 149.14 423.25 148.03ZM230.5 155.75C227.28 156.75 224.07 157.75 220.85 158.75C223.66 159.53 226.47 160.31 229.28 161.09C222.56 161.09 215.85 161.09 209.13 161.09C216.26 159.31 223.38 157.53 230.5 155.75ZM182.29 234.66C223.35 228.93 255.19 267.44 254.71 305.75C254.29 340 228.56 370.99 193.75 374.02C125.34 379.98 87.41 297.94 140.35 252.09C152.44 241.62 166.79 236.83 182.29 234.66ZM403.29 234.69C471.93 227.49 510.25 323.61 449.63 363.89C440.84 369.73 429.63 372.72 419.25 373.97C344.55 382.98 310.58 280.52 374.91 243.18C383.84 237.99 393.08 235.76 403.29 234.69ZM60.75 237.31C54.09 238.99 47.55 240.26 42.05 244.75C47.68 243.08 53.3 241.42 58.93 239.75C58.6 241.08 58.28 242.42 57.96 243.75C60.36 243.98 60.87 239.38 60.75 237.31ZM553.08 245.75C547.44 240.42 540.54 239.07 533.25 237.63C533.82 239.78 534.39 241.93 534.97 244.08C534.97 242.47 534.97 240.86 534.97 239.25C537.64 240.05 540.32 240.86 543 241.66C540.72 241.66 538.44 241.66 536.16 241.66C541.8 243.03 547.44 244.39 553.08 245.75ZM56.75 254.63C56.09 258.17 55.42 261.71 54.76 265.25C47.75 267.25 40.74 269.25 33.73 271.25C33.24 279 32.74 286.75 32.25 294.5C32.58 292.5 32.92 290.49 33.25 288.49C39.55 287.14 45.85 285.8 52.15 284.45C52.15 292.96 52.15 301.48 52.15 309.99C53.68 291.54 55.22 273.09 56.75 254.63ZM164.84 255.17C146.42 260.06 154.12 288.23 172.65 283.81C191.41 279.35 184.04 250.08 164.84 255.17ZM387.31 255.15C368.4 259.64 376.24 289.19 395.07 283.76C413.35 278.49 406.5 250.59 387.31 255.15ZM565.25 258.08C565.13 262.69 569.18 267.89 570.67 272.61C573.04 280.13 572.48 292.99 575.75 299.17C577.29 296.55 575.52 290.82 575.04 287.74C573.52 277.89 571.59 266.1 565.25 258.08ZM28.75 258.7C22.72 266.54 19.86 279 19.14 288.75C18.94 291.48 17.19 295.74 18.75 298C21.42 286.72 24.08 275.44 26.75 264.15C26.25 273.52 25.75 282.88 25.25 292.25C26.42 281.06 27.58 269.88 28.75 258.7ZM537.75 260.5C539.1 277.03 540.46 293.55 541.81 310.08C541.81 301.72 541.81 293.36 541.81 284.99C546.59 284.5 557.06 287.11 561.75 290.53C561.25 283.98 560.75 277.43 560.25 270.89C553.25 269.05 546.25 267.22 539.25 265.38C538.75 263.75 538.25 262.13 537.75 260.5ZM566.25 264.35C566.92 274.79 567.58 285.23 568.25 295.67C567.58 285.23 566.92 274.79 566.25 264.35ZM561.43 291.8C561.43 297.49 561.43 303.18 561.43 308.87C561.43 303.18 561.43 297.49 561.43 291.8ZM106.75 308.5C107.85 314.58 108.94 320.67 110.04 326.75C107.77 326.43 105.85 310.95 106.75 308.5ZM225.25 338.08C222.93 334.61 223.52 330.23 217.72 329.09C209.52 327.47 207.21 337.64 211.36 342.75C205.53 342.72 198.52 347.77 192.28 348.67C176.14 350.98 162.07 343.16 151.25 332.13C149.08 333.84 146.92 335.55 144.75 337.26C143.75 335.91 142.75 334.56 141.75 333.2C141.11 341.6 158.86 353.91 165.64 357.12C191.54 369.34 219.41 357.31 233.33 333.75C231.97 334.83 230.61 335.91 229.25 336.99C228.42 336.28 227.58 335.57 226.75 334.86C226.25 335.93 225.75 337 225.25 338.08ZM444.25 340.87C446.13 322.85 422.42 329.22 432.25 343.62C429.16 342.81 417.72 348.14 413.25 348.66C397.33 350.53 381.95 343.26 371.75 331.29C369.58 332.36 367.42 333.43 365.25 334.5C364.36 333.92 363.47 333.33 362.58 332.75C365.55 340.02 371.76 346.6 377.94 351.32C403.9 371.13 437.83 361.62 454.38 335.25C452.67 336.88 450.96 338.51 449.25 340.15C447.15 337.83 446.09 338.98 444.25 340.87ZM254.3 376.1C260.73 374.43 265.62 381.24 270.87 383.82C281.1 388.83 293.18 391.94 304.73 390.84C313.03 390.05 320.98 387.38 328.34 383.58C332.14 381.63 335.7 377.17 339.78 376.04C346.27 374.25 350.9 378.91 350.06 385.25C349.19 391.79 339.64 397.39 334.55 400.31C312.42 413.03 287.7 412.93 265.41 400.79C258.43 396.99 247.69 390.17 249.87 381.23C250.43 378.96 251.84 376.73 254.3 376.1ZM195.25 445.1C162.94 437.8 134.2 420.66 114.03 394.25C116.29 394.86 124.63 405.92 127.21 408.55C135.45 416.93 145.58 423.38 155.84 428.95C165.09 433.98 175.07 438.2 185.14 441.2C187.34 441.86 195.09 443.13 195.25 445.1ZM501.75 396.09C502.34 401.78 494.45 411.31 491.06 415.84C480.62 429.75 445.68 452.82 428.5 453.25C429.91 450.77 437.06 449.65 439.9 448.7C448.14 445.95 456.47 442.16 463.94 437.67C474.46 431.36 484.49 423.48 491.56 413.33C495.28 407.99 497.7 400.93 501.75 396.09ZM95.25 396.93C98.81 401.61 100.65 407.61 104.39 412.39C116.23 427.48 131.98 438.3 149.44 445.75C157.85 449.34 166.74 452.23 175.53 454.72C180.41 456.1 186.33 456.5 190.86 458.75C183.46 459.4 174.2 455.28 167.17 453.07C146.25 446.49 126.16 437.11 110.64 421.12C106.61 416.98 94.38 402.26 95.25 396.93ZM480.25 396.77C480.62 400.87 465.95 413.5 462.11 416.38C444.17 429.84 424.55 438.36 403.13 444.32C397.65 445.85 387.4 450.33 382 448.75C385.28 446.32 410.59 441.32 417.21 438.98C441.45 430.41 464.08 417.21 480.25 396.77ZM427.5 453.25C416.5 455.92 405.5 458.58 394.5 461.25C405.5 458.58 416.5 455.92 427.5 453.25ZM347.5 453.75C345.34 455.37 325.47 456.8 323.8 455.25C331.7 454.75 339.6 454.25 347.5 453.75ZM322 455.89C319.32 457.36 313.44 456.91 310.25 456.95C302.34 457.07 280.84 459.23 274.5 455.89C290.33 455.89 306.17 455.89 322 455.89ZM219.68 463.75C214.29 462.92 208.89 462.08 203.5 461.25C208.89 462.08 214.29 462.92 219.68 463.75ZM388.5 462.25C381.83 463.25 375.17 464.25 368.5 465.25C375.17 464.25 381.83 463.25 388.5 462.25ZM367.5 465.25C361.33 465.92 355.17 466.58 349 467.25C355.17 466.58 361.33 465.92 367.5 465.25ZM334.5 468.25C329.67 468.58 324.83 468.92 320 469.25C324.83 468.92 329.67 468.58 334.5 468.25ZM307 469.32C300.83 469.32 294.67 469.32 288.5 469.32C294.67 469.32 300.83 469.32 307 469.32Z" fill="#153e65" fill-rule="evenodd" stroke="#153e65" stroke-width="0.25" stroke-linejoin="round"/>
</svg>